<svg width="168" height="170" viewBox="0 0 168 170" fill="none" xmlns="http://www.w3.org/2000/svg">
<path d="M62.8163 3.36016C62.5275 3.89141 62.1338 4.46251 61.95 4.64844C61.4381 5.12657 60.7294 6.72032 60.6638 7.51719C60.6375 7.90235 60.6769 8.42032 60.7556 8.67266C60.9656 9.29688 61.7925 10.2266 62.6063 10.7578C62.9606 10.9969 63.2625 11.2094 63.2625 11.2492C63.2625 11.3156 62.8031 11.2227 62.3831 11.0633C61.9631 10.9039 62.4488 11.3953 63.0919 11.7805L63.6694 12.1258L63.5775 13.3344C63.4463 15.2469 63.3544 15.5524 62.16 18.8461C61.5431 20.5594 61.0313 22.1133 61.0313 22.3125C61.0313 22.7906 61.215 22.9234 62.0813 23.0695C62.79 23.1758 62.8031 23.1891 62.7506 23.5742C62.7375 23.8 62.5013 24.6234 62.2519 25.4336C61.3725 28.2359 61.2281 29.6172 61.6744 30.6399C62.2256 31.8617 63.0525 31.9547 66.6094 31.2641C66.9638 31.1977 66.9113 31.2508 66.2288 31.7953C65.7956 32.1406 64.8769 32.7516 64.1681 33.15L62.895 33.8805L60.5588 34.0266C59.2594 34.1063 57.9994 34.1594 57.75 34.1328C57.5006 34.093 56.6081 34.0797 55.7813 34.0797C54.285 34.0797 53.025 34.332 52.4869 34.7172C52.29 34.85 52.0144 34.757 50.8331 34.1727C50.0588 33.7875 46.7119 32.4992 43.4175 31.3172L37.4194 29.1524L36.8944 28.3953C35.9231 27.0406 34.7813 26.4563 28.0219 23.8399C24.1631 22.3524 22.1156 21.4758 19.2675 20.0547C18.2569 19.5367 17.2725 19.125 17.0887 19.125C16.8656 19.125 16.6031 18.9391 16.2225 18.5008C14.2406 16.1899 12.8887 15.0609 11.025 14.1578C9.77812 13.5469 8.96437 13.4539 7.90125 13.7859C6.02437 14.3836 3.64875 16.2961 2.90062 17.8102C2.31 19.0055 2.16562 19.8555 2.34937 20.9711C2.55937 22.2727 2.70375 22.5649 3.24187 22.6445C3.47812 22.6844 3.87187 22.7375 4.10812 22.7774L4.54125 22.8438L4.41 23.9328L4.29187 25.0086L4.80375 25.4602C5.49937 26.0578 6.51 26.5492 7.31062 26.682C8.0325 26.7883 8.78062 26.7219 10.9069 26.3102C11.6681 26.1641 13.0331 26.018 13.9256 25.9781L15.5531 25.8984L16.8525 27.3328C17.8106 28.382 18.7162 29.6172 20.2913 32.0344C23.1131 36.3641 24.3863 37.7055 26.6569 38.768C27.7331 39.2859 29.6756 39.8438 30.345 39.8438C30.8175 39.8438 31.2769 40.1758 36.33 44.1203C39.3356 46.4844 42.2756 48.7289 42.84 49.1141C45.6225 51 48.7594 52.1688 51.3056 52.2484L52.4344 52.2883L53.0381 54.0016C54.6263 58.4774 57.1988 63.7235 61.1625 70.5235C62.6588 73.0867 63.525 74.9195 63.525 75.5039C63.525 75.5836 62.6719 75.7695 61.3988 75.9555C57.8288 76.4602 51.2663 77.868 48.7594 78.6383C46.1738 79.4485 44.7694 80.511 43.9294 82.3039C43.5488 83.1539 43.5225 83.3 43.4831 85C43.4306 87.1516 43.575 87.6961 44.8219 90.286C46.2656 93.2742 47.9719 95.8774 50.9381 99.6094C52.5 101.562 53.3925 102.611 56.8969 106.582C60.0338 110.128 61.7531 112.399 63.0919 114.763C63.7875 116.012 65.4938 119.797 65.4938 120.089C65.4938 120.182 65.1656 120.461 64.785 120.687C63.6956 121.351 62.16 122.891 61.3594 124.113C59.8106 126.464 58.3275 130.116 57.7631 132.959C56.9363 137.076 57.2381 139.334 58.7213 140.356C60.1388 141.313 60.5719 140.927 61.8713 137.527C63.105 134.353 64.5225 132.082 66.6094 129.944C67.9088 128.602 69.3131 127.673 70.98 127.022C73.7363 125.959 74.1038 125.734 74.6025 124.671C75.4819 122.852 74.9175 119.425 73.5263 118.084C73.185 117.752 72.9094 117.287 72.66 116.609C72.45 116.065 71.8463 114.617 71.3213 113.395C69.8906 110.088 69.9431 110.38 69.825 104.855C69.7725 102.226 69.6806 99.8617 69.6281 99.6094C69.5888 99.357 69.7988 99.7688 70.1269 100.539C70.9538 102.558 71.8463 104.245 73.0406 106.051C73.7494 107.113 74.2219 108.003 74.4713 108.707C77.7 118.004 84.0919 134.991 84.4463 135.23C84.525 135.283 85.4831 135.628 86.5594 135.987C89.5256 136.97 92.5181 137.594 95.3663 137.806L96.5606 137.899L97.4794 139.307C98.8969 141.445 99.6056 142.787 100.866 145.655C102.231 148.777 102.926 150.211 103.451 150.968C103.806 151.499 103.832 151.632 103.871 153.093C103.95 155.616 104.528 157.516 105.893 159.787C107.139 161.845 108.084 163.054 109.974 164.953C112.809 167.809 115.119 169.216 116.681 169.03C117.429 168.938 118.322 168.513 118.519 168.154C118.899 167.423 118.65 166.905 116.891 164.648C115.264 162.576 114.398 161.155 113.61 159.269C112.271 156.055 111.996 153.943 112.481 150.742C112.652 149.587 112.744 148.591 112.691 148.232C112.586 147.462 112.088 146.625 111.444 146.107C110.88 145.655 109.095 144.766 108.754 144.766C108.531 144.766 106.929 141.658 106.26 139.945C105.919 139.068 105.486 137.222 105.591 137.063C105.617 137.009 105.984 136.903 106.404 136.797C106.824 136.704 107.993 136.359 109.003 136.04C120.304 132.374 132.615 123.741 150.084 107.206C153.353 104.112 166.031 91.3485 166.031 91.1625C166.031 91.0828 165.283 90.95 164.364 90.857C159.653 90.3922 153.221 89.4094 148.706 88.4531C131.473 84.8141 118.322 78.5055 109.161 69.461C107.363 67.6945 105 65.0914 105 64.8922C105 64.8391 105.118 64.8656 105.249 64.9453C106.05 65.3703 109.489 66.6985 110.408 66.9242C113.82 67.7742 118.519 67.0703 120.264 65.4235C121.354 64.4008 121.052 62.3953 119.228 58.6367C118.243 56.618 117.324 55.3297 116.498 54.8117C116.025 54.5195 115.644 54.0547 114.778 52.7266C111.983 48.45 109.2 45.5414 105.459 43.0047C102.06 40.707 97.0594 38.6484 94.8806 38.6484C94.5 38.6484 94.2506 38.5953 94.3031 38.5156C94.395 38.3695 98.3194 37.0547 99.8419 36.6695C100.433 36.5102 101.614 36.2711 102.467 36.125C103.32 35.9789 104.514 35.7399 105.118 35.5938C105.735 35.4477 106.824 35.2617 107.546 35.182C109.095 35.0094 109.331 34.9164 109.331 34.4383C109.331 33.5883 107.1 32.1141 104.541 31.2774C102.414 30.5867 101.076 30.6266 98.5819 31.4766C95.8125 32.4063 91.7438 34.1328 89.0663 35.4875C88.2131 35.9258 87.9769 35.9922 87.7275 35.8859C87.57 35.8063 87.0188 35.7797 86.4544 35.8195L85.4831 35.8992L84.1706 34.6508C83.4488 33.9602 82.0575 32.6586 81.0731 31.7422L79.275 30.082V28.7938C79.275 27.2797 79.4719 25.7524 79.8 24.6899C80.0888 23.7469 81.2569 22.0469 81.375 22.3922C81.4538 22.5914 81.5588 22.5383 82.0575 22.0734C83.1206 21.0774 83.8819 19.218 84.2756 16.7078C84.5119 15.1539 84.3675 11.7406 84.0131 10.5188C83.3438 8.19454 82.2413 6.72032 80.1544 5.35235C77.5425 3.63907 76.0463 3.06798 73.8938 2.96173C72.135 2.86876 71.0588 3.04141 68.7619 3.78516C65.6381 4.80782 64.2731 4.88751 63.4988 4.11719C63.105 3.71876 63.0525 3.41329 63.2625 2.84219C63.5119 2.19141 63.3281 2.39063 62.8163 3.36016ZM68.775 95.8906C68.775 95.957 68.7488 96.0235 68.7225 96.0235C68.6831 96.0235 68.6175 95.957 68.5781 95.8906C68.5388 95.811 68.565 95.7578 68.6306 95.7578C68.7094 95.7578 68.775 95.811 68.775 95.8906Z" fill="white"/>
</svg>
